<?xml version="1.0" standalone="no"?>
<!DOCTYPE svg PUBLIC "-//W3C//DTD SVG 20010904//EN"
 "http://www.w3.org/TR/2001/REC-SVG-20010904/DTD/svg10.dtd">
<svg version="1.0" xmlns="http://www.w3.org/2000/svg"
 width="700.000000pt" height="700.000000pt" viewBox="0 0 700.000000 700.000000"
 preserveAspectRatio="xMidYMid meet">
<metadata>
Created by potrace 1.11, written by Peter Selinger 2001-2013
</metadata>
<g transform="translate(0.000000,700.000000) scale(0.100000,-0.100000)"
fill="#000000" stroke="none">
<path d="M3655 6720 c-794 -81 -1550 -412 -2191 -961 -803 -687 -1318 -1610
-1441 -2584 -24 -191 -23 -559 1 -740 53 -395 176 -747 365 -1046 l40 -63 -46
-50 c-86 -96 -126 -205 -126 -341 0 -147 46 -260 147 -360 152 -152 392 -188
588 -89 27 13 78 50 114 80 l66 56 126 -65 c263 -135 523 -215 857 -264 165
-24 587 -24 766 0 212 28 398 69 616 133 l122 37 133 -26 c222 -43 311 -52
548 -51 179 1 254 5 369 23 814 124 1498 583 1917 1284 202 339 329 733 364
1137 5 63 10 139 10 168 l0 52 -254 0 -254 0 -7 -97 c-31 -465 -176 -861 -445
-1213 -32 -41 -67 -84 -79 -94 l-22 -20 -712 712 -712 712 872 0 872 0 35 108
c104 322 153 613 163 957 13 498 -69 891 -272 1298 l-74 149 54 64 c95 111
135 215 135 350 0 140 -48 257 -148 358 -184 186 -496 193 -694 16 l-52 -47
-76 48 c-291 180 -644 304 -1010 354 -137 19 -537 28 -665 15z m299 -505 c39
-7 83 -18 97 -23 43 -17 89 -62 117 -116 22 -43 27 -64 27 -131 0 -70 -4 -87
-29 -133 -32 -58 -76 -96 -135 -117 -58 -20 -482 -15 -532 7 -97 42 -162 144
-162 253 -1 148 105 254 272 275 83 11 251 4 345 -15z m-524 -3880 c-592 -592
-717 -712 -729 -702 -24 21 -161 205 -211 286 -187 302 -298 655 -317 1009
l-6 122 989 0 989 0 -715 -715z m765 -1434 c-12 -11 -276 30 -407 63 -291 75
-525 189 -779 382 -54 40 -101 79 -105 85 -4 7 251 269 642 660 l649 649 3
-917 c1 -504 0 -919 -3 -922z m1539 518 c-10 -12 -53 -47 -94 -79 -241 -184
-510 -313 -801 -384 -108 -26 -294 -56 -348 -56 l-31 0 0 917 0 918 647 -647
647 -647 -20 -22z"/>
</g>
</svg>
